<svg xmlns="http://www.w3.org/2000/svg" width="267.189" height="63.62" viewBox="0 0 267.189 63.62">
  <g id="Group_20" data-name="Group 20" transform="translate(0 241.816)">
    <path id="Path_11" data-name="Path 11" d="M2.228-171.422H0v-.895H5.4v.895H3.2v8.809H2.228Z" transform="translate(0 -51.214)" fill="#5e5f5e"/>
    <path id="Path_12" data-name="Path 12" d="M24.543-172.318h.96v3.572a2.086,2.086,0,0,1,.922-.9,2.771,2.771,0,0,1,1.255-.3,3.283,3.283,0,0,1,1.343.289,3.045,3.045,0,0,1,1.1.813,2.534,2.534,0,0,1,.615,1.151,5.892,5.892,0,0,1,.14,1.307v3.777h-.973v-3.777a6.076,6.076,0,0,0-.063-.9,1.909,1.909,0,0,0-.346-.827,2,2,0,0,0-.818-.671,2.549,2.549,0,0,0-1.051-.224,2.188,2.188,0,0,0-.979.236,2.1,2.1,0,0,0-.775.634,1.518,1.518,0,0,0-.332.839c-.027.313-.039.616-.039.915v3.777h-.96Z" transform="translate(-18.086 -51.214)" fill="#5e5f5e"/>
    <path id="Path_13" data-name="Path 13" d="M60.837-160.1a2.727,2.727,0,0,0-.966-1.621,2.712,2.712,0,0,0-1.787-.658,2.794,2.794,0,0,0-1.8.645,2.654,2.654,0,0,0-.98,1.634Zm-5.531.87a2.342,2.342,0,0,0,.264.961,2.738,2.738,0,0,0,.615.8,2.965,2.965,0,0,0,.851.537,2.505,2.505,0,0,0,.973.2,2.988,2.988,0,0,0,1.53-.423,2.385,2.385,0,0,0,1.032-1.151h1.024a3.344,3.344,0,0,1-.532,1.005,3.863,3.863,0,0,1-.825.787,4.2,4.2,0,0,1-1.012.524,3.266,3.266,0,0,1-1.115.194,3.583,3.583,0,0,1-1.473-.3,3.914,3.914,0,0,1-1.19-.812,3.907,3.907,0,0,1-.813-1.19,3.605,3.605,0,0,1-.3-1.473,3.755,3.755,0,0,1,.289-1.468,3.649,3.649,0,0,1,.8-1.191,3.8,3.8,0,0,1,1.191-.793,3.727,3.727,0,0,1,1.473-.289,3.746,3.746,0,0,1,1.594.353,3.427,3.427,0,0,1,1.286,1.029,2.9,2.9,0,0,1,.673,1.276,7.88,7.88,0,0,1,.173,1.427Z" transform="translate(-40.038 -57.845)" fill="#5e5f5e"/>
    <path id="Path_14" data-name="Path 14" d="M13.721-93.294a20.581,20.581,0,0,0,2.2-.112,4.549,4.549,0,0,0,2.031-.758,3.738,3.738,0,0,0,1.415-1.513,4.233,4.233,0,0,0,.489-1.96,3.968,3.968,0,0,0-2.633-3.977,5.792,5.792,0,0,0-2.213-.449H10.051v8.768Zm-5.8-10.73H13.47a23.333,23.333,0,0,1,2.939.182,7.1,7.1,0,0,1,2.746.966,5.9,5.9,0,0,1,2.1,2.242,6.3,6.3,0,0,1,.729,3,6.273,6.273,0,0,1-.6,2.745,6,6,0,0,1-1.806,2.186,6.4,6.4,0,0,1-2.646,1.134,17.08,17.08,0,0,1-2.871.237H10.051v8.545H7.924Z" transform="translate(-5.839 -101.54)" fill="#eb1f23"/>
    <path id="Path_15" data-name="Path 15" d="M72.259-83.987h1.989v2.3a3.835,3.835,0,0,1,1.877-2,6.868,6.868,0,0,1,2.662-.63v2.1a5.564,5.564,0,0,0-1.527.293,3.843,3.843,0,0,0-1.275.8A3.7,3.7,0,0,0,74.6-79.281a9.019,9.019,0,0,0-.238,2.24v8.768h-2.1Z" transform="translate(-53.248 -116.057)" fill="#eb1f23"/>
    <path id="Path_16" data-name="Path 16" d="M112.056-82.278a6.027,6.027,0,0,0-2.437.489,6,6,0,0,0-1.946,1.36,6.4,6.4,0,0,0-1.288,1.974A6.328,6.328,0,0,0,105.922-76a5.577,5.577,0,0,0,.49,2.341,6.593,6.593,0,0,0,1.317,1.919,6.124,6.124,0,0,0,1.946,1.33,5.856,5.856,0,0,0,2.381.491,5.57,5.57,0,0,0,2.41-.518,6.1,6.1,0,0,0,1.89-1.388,6.528,6.528,0,0,0,1.26-2.016,6.376,6.376,0,0,0,.464-2.409,5.707,5.707,0,0,0-1.85-4.287,5.884,5.884,0,0,0-4.174-1.735m0-2.044a7.575,7.575,0,0,1,3.123.657,9.03,9.03,0,0,1,2.591,1.738,8.081,8.081,0,0,1,1.78,2.549,7.565,7.565,0,0,1,.657,3.124,8.225,8.225,0,0,1-.63,3.192,8.369,8.369,0,0,1-1.751,2.662,8.8,8.8,0,0,1-2.591,1.836,7.443,7.443,0,0,1-3.18.686,8.274,8.274,0,0,1-3.179-.629,8.076,8.076,0,0,1-2.648-1.752,8.519,8.519,0,0,1-1.778-2.605A7.656,7.656,0,0,1,103.792-76a8.045,8.045,0,0,1,.659-3.248,8.435,8.435,0,0,1,1.778-2.633,8.571,8.571,0,0,1,2.605-1.78,7.88,7.88,0,0,1,3.222-.657" transform="translate(-76.485 -116.059)" fill="#eb1f23"/>
    <path id="Path_17" data-name="Path 17" d="M191.006-90.716a6.025,6.025,0,0,0-.489-2.437,5.743,5.743,0,0,0-1.346-1.919,6.409,6.409,0,0,0-2-1.261,6.4,6.4,0,0,0-2.41-.461,5.882,5.882,0,0,0-2.381.489,6.98,6.98,0,0,0-1.975,1.289A5.728,5.728,0,0,0,179.06-93.1a5.871,5.871,0,0,0-.49,2.381,6.072,6.072,0,0,0,.49,2.409,6.447,6.447,0,0,0,1.344,2.016,6.172,6.172,0,0,0,2,1.36,6.043,6.043,0,0,0,2.408.491,5.994,5.994,0,0,0,2.437-.491,5.934,5.934,0,0,0,1.948-1.36,6.74,6.74,0,0,0,1.317-2.016,6.084,6.084,0,0,0,.489-2.409m2.073,7.928h-2.018v-2.857a7.306,7.306,0,0,1-6.3,3.249,7.409,7.409,0,0,1-3.292-.771,13,13,0,0,1-3.32-2.478,6.658,6.658,0,0,1-1.134-1.961,8.01,8.01,0,0,1-.574-3.109,7.623,7.623,0,0,1,.686-3.208,8.168,8.168,0,0,1,1.836-2.577,8.738,8.738,0,0,1,2.675-1.708,8.372,8.372,0,0,1,3.235-.63,8.077,8.077,0,0,1,3.446.769,6.138,6.138,0,0,1,2.633,2.312v-8.263h2.129Z" transform="translate(-130.02 -101.541)" fill="#eb1f23"/>
    <path id="Path_18" data-name="Path 18" d="M254.724-98.5h2.1v15.714h-2.1Zm0-5.519h2.1v3.614h-2.1Z" transform="translate(-187.708 -101.541)" fill="#eb1f23"/>
    <path id="Path_19" data-name="Path 19" d="M283.172-82.278a5.554,5.554,0,0,0-2.3.489,5.957,5.957,0,0,0-1.863,1.289,6.108,6.108,0,0,0-1.233,1.89,5.836,5.836,0,0,0-.462,2.3,6.565,6.565,0,0,0,1.666,4.511,5.549,5.549,0,0,0,4.356,1.877,5.672,5.672,0,0,0,4.287-1.794,6.717,6.717,0,0,0,1.3-2.072,6.252,6.252,0,0,0,.491-2.353,5.856,5.856,0,0,0-1.807-4.384,6.136,6.136,0,0,0-4.441-1.751m8.32,11.765a15.772,15.772,0,0,1-.266,3.139,5.979,5.979,0,0,1-1.581,2.717,7.179,7.179,0,0,1-2.845,1.89,9.545,9.545,0,0,1-3.347.629,8.182,8.182,0,0,1-2.52-.406,7.807,7.807,0,0,1-2.3-1.177,8.1,8.1,0,0,1-1.777-1.806,7.335,7.335,0,0,1-1.108-2.353h2.073a8.241,8.241,0,0,0,2.381,2.731,5.754,5.754,0,0,0,3.417.995,6.758,6.758,0,0,0,2.928-.686,4.963,4.963,0,0,0,2.227-2.061,4.434,4.434,0,0,0,.616-1.751,18.376,18.376,0,0,0,.085-1.862v-.868a5.287,5.287,0,0,1-2.564,2.648,8.074,8.074,0,0,1-3.572.854,7.8,7.8,0,0,1-3.038-.629,8.73,8.73,0,0,1-2.647-1.724,7.644,7.644,0,0,1-2.466-5.854,8.093,8.093,0,0,1,.547-3.025,7.7,7.7,0,0,1,.937-1.849,9.344,9.344,0,0,1,3.251-2.648,8.148,8.148,0,0,1,3.3-.713,8.041,8.041,0,0,1,3.572.854,5.993,5.993,0,0,1,2.676,2.507v-3.026h2.016Z" transform="translate(-202.788 -116.059)" fill="#eb1f23"/>
    <path id="Path_20" data-name="Path 20" d="M361.109-83.045l-9.078,21.232h-2.239l2.464-6.022-6.022-15.211h2.241l5.043,12.493,5.293-12.493Z" transform="translate(-255.142 -116.999)" fill="#eb1f23"/>
    <path id="Path_21" data-name="Path 21" d="M432.114-93.536a10.591,10.591,0,0,1-1.12,4.048,10.984,10.984,0,0,1-2.492,3.235A11.605,11.605,0,0,1,425-84.11a11.143,11.143,0,0,1-4.119.77,11.375,11.375,0,0,1-4.369-.854,11.093,11.093,0,0,1-3.614-2.381,11.878,11.878,0,0,1-2.464-3.558,10.325,10.325,0,0,1-.925-4.328,9.826,9.826,0,0,1,.9-4.105,11.677,11.677,0,0,1,2.381-3.46,11.244,11.244,0,0,1,8.1-3.277,11.308,11.308,0,0,1,6.247,1.821,14.9,14.9,0,0,1,2.157,1.82,5.848,5.848,0,0,1,1.513,2.382h-2.408a7.6,7.6,0,0,0-3.221-2.926,9.563,9.563,0,0,0-4.288-1.023,10.214,10.214,0,0,0-3.347.574,8.466,8.466,0,0,0-2.984,1.778,9.066,9.066,0,0,0-2.114,2.928,8.349,8.349,0,0,0-.8,3.543,8.518,8.518,0,0,0,.742,3.585,8.868,8.868,0,0,0,2.032,2.829,9.749,9.749,0,0,0,2.983,1.9,9.331,9.331,0,0,0,3.6.7,8.981,8.981,0,0,0,5.3-1.723,8.208,8.208,0,0,0,3.249-4.5H417.715v-1.933Z" transform="translate(-301.769 -100.599)" fill="#5e5f5e"/>
    <path id="Path_22" data-name="Path 22" d="M519.692-77.291a5.953,5.953,0,0,0-2.116-3.544,5.92,5.92,0,0,0-3.907-1.443,6.1,6.1,0,0,0-3.935,1.415,5.789,5.789,0,0,0-2.144,3.572Zm-12.1,1.9a5.109,5.109,0,0,0,.574,2.1,6,6,0,0,0,1.345,1.751,6.54,6.54,0,0,0,1.863,1.177,5.437,5.437,0,0,0,2.128.434,6.531,6.531,0,0,0,3.347-.925,5.211,5.211,0,0,0,2.256-2.52h2.241a7.163,7.163,0,0,1-1.163,2.2,8.31,8.31,0,0,1-1.806,1.722,9.259,9.259,0,0,1-2.213,1.151,7.24,7.24,0,0,1-2.437.419,7.853,7.853,0,0,1-3.222-.658,8.523,8.523,0,0,1-2.605-1.779,8.516,8.516,0,0,1-1.778-2.6,7.846,7.846,0,0,1-.659-3.222,8.221,8.221,0,0,1,.63-3.208,7.988,7.988,0,0,1,1.752-2.606,8.255,8.255,0,0,1,2.605-1.735,8.138,8.138,0,0,1,3.222-.63,8.227,8.227,0,0,1,3.489.77A7.5,7.5,0,0,1,519.97-81.3a6.271,6.271,0,0,1,1.471,2.787,17.324,17.324,0,0,1,.379,3.124Z" transform="translate(-372.477 -116.058)" fill="#5e5f5e"/>
    <path id="Path_23" data-name="Path 23" d="M579.921-83.987h1.989v2.3a5.7,5.7,0,0,1,4.874-2.633,7.27,7.27,0,0,1,3.024.658,7.1,7.1,0,0,1,2.55,1.975,5.58,5.58,0,0,1,1.176,2.41,13.946,13.946,0,0,1,.252,2.745v8.263h-2.128v-8.263a13.387,13.387,0,0,0-.141-1.975,3.789,3.789,0,0,0-.756-1.751,5.1,5.1,0,0,0-1.82-1.5,5.1,5.1,0,0,0-2.269-.518,5.021,5.021,0,0,0-2.143.489,4.189,4.189,0,0,0-1.7,1.415,3.589,3.589,0,0,0-.729,1.863q-.085,1-.083,1.975v8.263h-2.1Z" transform="translate(-427.348 -116.057)" fill="#5e5f5e"/>
    <path id="Path_24" data-name="Path 24" d="M659.336-77.291a5.953,5.953,0,0,0-2.116-3.544,5.921,5.921,0,0,0-3.908-1.443,6.1,6.1,0,0,0-3.935,1.415,5.788,5.788,0,0,0-2.143,3.572Zm-12.1,1.9a5.107,5.107,0,0,0,.574,2.1,6.023,6.023,0,0,0,1.345,1.751,6.53,6.53,0,0,0,1.864,1.177,5.432,5.432,0,0,0,2.127.434,6.532,6.532,0,0,0,3.348-.925,5.211,5.211,0,0,0,2.256-2.52h2.241a7.165,7.165,0,0,1-1.163,2.2,8.3,8.3,0,0,1-1.807,1.722A9.229,9.229,0,0,1,655.8-68.3a7.233,7.233,0,0,1-2.436.419,7.851,7.851,0,0,1-3.222-.658,8.513,8.513,0,0,1-2.605-1.779,8.51,8.51,0,0,1-1.778-2.6,7.846,7.846,0,0,1-.659-3.222,8.2,8.2,0,0,1,.63-3.208,8,8,0,0,1,1.751-2.606,8.269,8.269,0,0,1,2.605-1.735,8.145,8.145,0,0,1,3.222-.63,8.22,8.22,0,0,1,3.489.77,7.5,7.5,0,0,1,2.814,2.255,6.271,6.271,0,0,1,1.471,2.787,17.227,17.227,0,0,1,.378,3.124Z" transform="translate(-475.382 -116.058)" fill="#5e5f5e"/>
    <path id="Path_25" data-name="Path 25" d="M719.557-83.987h1.989v2.3a3.835,3.835,0,0,1,1.876-2,6.869,6.869,0,0,1,2.662-.63v2.1a5.564,5.564,0,0,0-1.527.293,3.836,3.836,0,0,0-1.275.8,3.7,3.7,0,0,0-1.387,1.849,9.067,9.067,0,0,0-.237,2.24v8.768h-2.1Z" transform="translate(-530.247 -116.057)" fill="#5e5f5e"/>
    <path id="Path_26" data-name="Path 26" d="M759.529-82.278a6.075,6.075,0,0,0-2.408.489,6.563,6.563,0,0,0-2,1.318,6.4,6.4,0,0,0-1.372,1.946,5.719,5.719,0,0,0-.518,2.437,5.749,5.749,0,0,0,.518,2.424,5.968,5.968,0,0,0,1.4,1.946,7.03,7.03,0,0,0,2.031,1.3,6.043,6.043,0,0,0,2.408.491,5.722,5.722,0,0,0,2.325-.491,6.163,6.163,0,0,0,1.948-1.33,6.539,6.539,0,0,0,1.316-1.948,5.655,5.655,0,0,0,.49-2.312,6.168,6.168,0,0,0-1.75-4.466,5.853,5.853,0,0,0-4.385-1.807m8.152,14.006h-2.017V-71.24a6.11,6.11,0,0,1-2.577,2.508,7.533,7.533,0,0,1-3.5.854,8.7,8.7,0,0,1-3.6-.827,9.928,9.928,0,0,1-3.349-2.534,6.3,6.3,0,0,1-.993-1.822,8.424,8.424,0,0,1-.547-3.192,7.034,7.034,0,0,1,.169-1.541,8.861,8.861,0,0,1,.434-1.414,9.284,9.284,0,0,1,.547-1.148,2.189,2.189,0,0,1,.5-.659,10.948,10.948,0,0,1,3.461-2.591,8.379,8.379,0,0,1,3.318-.713,7.9,7.9,0,0,1,3.53.825,5.918,5.918,0,0,1,2.605,2.479v-2.969h2.017Z" transform="translate(-553.489 -116.059)" fill="#5e5f5e"/>
    <path id="Path_27" data-name="Path 27" d="M826.7-96.572h-3.278V-98.5H826.7v-5.519h2.128V-98.5h3.669v1.933h-3.669V-82.79H826.7Z" transform="translate(-606.784 -101.54)" fill="#5e5f5e"/>
    <path id="Path_28" data-name="Path 28" d="M867.313-98.5h2.1v15.714h-2.1Zm0-5.519h2.1v3.614h-2.1Z" transform="translate(-639.129 -101.541)" fill="#5e5f5e"/>
    <path id="Path_29" data-name="Path 29" d="M896.041-82.278a6.024,6.024,0,0,0-2.437.489,5.973,5.973,0,0,0-1.946,1.36,6.392,6.392,0,0,0-1.289,1.974A6.313,6.313,0,0,0,889.907-76a5.574,5.574,0,0,0,.491,2.341,6.6,6.6,0,0,0,1.316,1.919,6.136,6.136,0,0,0,1.947,1.33,5.857,5.857,0,0,0,2.381.491,5.573,5.573,0,0,0,2.41-.518,6.079,6.079,0,0,0,1.89-1.388,6.512,6.512,0,0,0,1.261-2.016,6.39,6.39,0,0,0,.463-2.409,5.707,5.707,0,0,0-1.849-4.287,5.884,5.884,0,0,0-4.174-1.735m0-2.044a7.577,7.577,0,0,1,3.123.657,9.053,9.053,0,0,1,2.591,1.738,8.094,8.094,0,0,1,1.78,2.549,7.565,7.565,0,0,1,.657,3.124,8.224,8.224,0,0,1-.63,3.192,8.381,8.381,0,0,1-1.751,2.662,8.794,8.794,0,0,1-2.592,1.836,7.436,7.436,0,0,1-3.179.686,8.271,8.271,0,0,1-3.179-.629,8.06,8.06,0,0,1-2.648-1.752,8.5,8.5,0,0,1-1.778-2.605A7.639,7.639,0,0,1,887.777-76a8.027,8.027,0,0,1,.659-3.248,8.416,8.416,0,0,1,1.778-2.633,8.553,8.553,0,0,1,2.605-1.78,7.881,7.881,0,0,1,3.222-.657" transform="translate(-654.209 -116.059)" fill="#5e5f5e"/>
    <path id="Path_30" data-name="Path 30" d="M962.87-83.987h1.989v2.3a5.7,5.7,0,0,1,4.874-2.633,7.268,7.268,0,0,1,3.024.658,7.108,7.108,0,0,1,2.549,1.975,5.6,5.6,0,0,1,1.176,2.41,13.967,13.967,0,0,1,.253,2.745v8.263h-2.128v-8.263a13.568,13.568,0,0,0-.139-1.975,3.814,3.814,0,0,0-.758-1.751,5.078,5.078,0,0,0-1.819-1.5,5.105,5.105,0,0,0-2.27-.518,5.022,5.022,0,0,0-2.143.489,4.192,4.192,0,0,0-1.7,1.415,3.591,3.591,0,0,0-.729,1.863q-.085,1-.083,1.975v8.263h-2.1Z" transform="translate(-709.546 -116.057)" fill="#5e5f5e"/>
    <g id="Group_19" data-name="Group 19" transform="translate(97.483 -241.816)">
      <g id="Group" transform="translate(0 0)">
        <text id="Power" transform="translate(0 14)" font-size="31" font-family="DBFongNamX-Bold, DB FongNam X" font-weight="700"><tspan x="0" y="0">Power</tspan></text>
        <text id="By" transform="translate(53.754 14)" font-size="31" font-family="DBFongNamX-Bold, DB FongNam X" font-weight="700"><tspan x="0" y="0">By</tspan></text>
      </g>
    </g>
  </g>
</svg>
